<svg xmlns="http://www.w3.org/2000/svg" xmlns:xlink="http://www.w3.org/1999/xlink" viewBox="0 0 288 288"><defs><style>.cls-1{fill:#fff;}.cls-2{fill:url(#New_Gradient_Swatch_4);}.cls-3{fill:url(#New_Gradient_Swatch_4-2);}.cls-4{fill:url(#New_Gradient_Swatch_4-3);}.cls-5{fill:url(#New_Gradient_Swatch_3);}.cls-6{fill:url(#New_Gradient_Swatch_4-4);}.cls-7{fill:none;}</style><linearGradient id="New_Gradient_Swatch_4" x1="113.79" y1="100.61" x2="261.9" y2="100.61" gradientUnits="userSpaceOnUse"><stop offset="0" stop-color="#1b75bc"/><stop offset="1" stop-color="#0ffc03"/></linearGradient><linearGradient id="New_Gradient_Swatch_4-2" x1="192.38" y1="201.97" x2="12.07" y2="201.97" xlink:href="#New_Gradient_Swatch_4"/><linearGradient id="New_Gradient_Swatch_4-3" x1="136.02" y1="198.52" x2="136.02" y2="0" xlink:href="#New_Gradient_Swatch_4"/><linearGradient id="New_Gradient_Swatch_3" x1="84.25" y1="198.88" x2="78.85" y2="198.88" gradientUnits="userSpaceOnUse"><stop offset="0" stop-color="#1b75bc"/><stop offset="1" stop-color="#2af598"/></linearGradient><linearGradient id="New_Gradient_Swatch_4-4" x1="237.49" y1="310.2" x2="153.6" y2="164.9" xlink:href="#New_Gradient_Swatch_4"/></defs><title>E logo</title><g id="Layer_2" data-name="Layer 2"><g id="Layer_2-2" data-name="Layer 2"><path class="cls-1" d="M128.66,140.3V129.52h37.23v-9.66H128.66V109.08h37.23V99.69H128.67a22.25,22.25,0,0,0-22.25,22.25v5.93a22.25,22.25,0,0,0,22.25,22.25h37.22V140.3Z"/><path class="cls-2" d="M211.28,99.69h0v50.43a51,51,0,0,0,32.62-11.58,4.94,4.94,0,0,1,.41-.34,51.14,51.14,0,0,0,17.59-39V67c0-1.71-.06-3.42-.21-5.08A63.88,63.88,0,0,0,260,51.1C259.66,104,211.28,99.69,211.28,99.69Z"/><path class="cls-3" d="M192.38,249.83H79.09a66.9,66.9,0,0,1-66.83-62c-.13-1.69-.19-3.37-.19-5.08V154.1C22.16,187,63.79,196.25,78.81,198.52l0,0a22.31,22.31,0,0,0,5.4.68h22.17C154.63,210.46,192.38,249.83,192.38,249.83Z"/><path class="cls-4" d="M260,51.07v0c-.32,52.87-48.69,48.59-48.69,48.59V72.18a21.59,21.59,0,0,0-21.6-21.58H84.25A21.58,21.58,0,0,0,62.67,72.18V177.62a21.59,21.59,0,0,0,16.14,20.9c-15-2.27-56.65-11.51-66.74-44.42V67c0-1.71.06-3.41.19-5.08A66.88,66.88,0,0,1,79.09,0H194.87A67,67,0,0,1,260,51.07Z"/><path class="cls-5" d="M84.25,199.22a22.31,22.31,0,0,1-5.4-.68C82.24,199.05,84.25,199.22,84.25,199.22Z"/><path class="cls-1" d="M211.28,150.12Z"/><path class="cls-6" d="M275.93,288h-75.1l15.11-18.52-11.78-9.81c-3.48-2.89-7.49-6.24-11.78-9.82,0,0-50-39.37-98.23-50.61H177a92.14,92.14,0,0,1,59.05,21.41h0l11.77,9.81,13.41-16.36,6.55,33,4.3,21.57Z"/><rect class="cls-7" width="288" height="288"/></g></g></svg>